<svg id="svg4423" xmlns="http://www.w3.org/2000/svg" viewBox="0 0 224.23 312.81">
  <defs>
    <style>
      .cls-1 {
        fill: #fff;
        stroke: #000;
        stroke-width: 1px;
      }

      .cls-2 {
        fill: #d40000;
      }
    </style>
  </defs>
  <g id="layer1">
    <g id="g8900">
      <g id="g8879">
        <rect id="rect6347" class="cls-1" x="0.5" y="0.5" width="223.23" height="311.81" rx="10.63"/>
      </g>
      <g id="g6564">
        <path id="path8628" class="cls-2" d="M269.51,430.51c-1.58-3.48-1.75-9.41,3-10.21,3.57-.46,5,1.2,5.3,3.74.15.74.57.79.7-.06a4.21,4.21,0,0,1,4.81-3.75c5.52.95,5.2,7,3.39,11.16-2.73,5.48-5.6,8.94-8.24,14.45-3-5.74-6.51-10.41-8.93-15.33Z" transform="translate(-259.93 -369.78)"/>
        <g id="g6555">
          <path id="path8650" class="cls-2" d="M457.24,621.78c-1.59,3.47-1.76,9.4,3,10.21,3.56.46,5-1.2,5.3-3.75.14-.74.56-.78.69.06a4.21,4.21,0,0,0,4.81,3.75c5.53-.94,5.2-7,3.4-11.15-2.73-5.48-5.6-8.94-8.25-14.45-3,5.74-6.5,10.4-8.92,15.33Z" transform="translate(-259.93 -369.78)"/>
          <g id="g6548">
            <g id="g8574">
              <path id="path7100" class="cls-2" d="M268.61,416.91l.16-2c.51-6.24,1.88-8.34,9.62-14.85,3.76-3.16,5-4.72,5.17-6.53.49-4.26-3.35-5.59-5.85-5.61-3.25,0-6.91,1.91-5.16,6.41l-3.64,1.07c-.74-4.2,0-8.14,3.42-9.89,4.55-2.28,10.38-1.39,13.33,2.2a8.46,8.46,0,0,1,1.37,8.36c-3.11,6.67-13.63,9.61-14.5,17.32h11.64v-4.3h3.42V417Z" transform="translate(-259.93 -369.78)"/>
              <path id="path7116" class="cls-2" d="M475.22,635.45l-.17,2c-.51,6.24-1.87,8.34-9.62,14.85-3.76,3.16-5,4.72-5.17,6.53-.49,4.26,3.35,5.59,5.86,5.61,3.24,0,6.91-1.91,5.16-6.41l3.63-1.07c.74,4.2,0,8.14-3.42,9.89-4.55,2.28-10.38,1.39-13.33-2.2a8.48,8.48,0,0,1-1.36-8.36c3.1-6.67,13.62-9.6,14.49-17.32H459.66v4.3h-3.43v-7.91Z" transform="translate(-259.93 -369.78)"/>
            </g>
            <path id="path8514" class="cls-2" d="M360,398.24c7.15-.47,10.87,5.63,11.6,10.44.43.76.67.55.83,0,.35-6.18,5.88-11.22,11-10.53,8.32.1,13.39,9.37,12,17.21-1.74,9.59-6.9,15.36-10.8,21.3-4.43,6.15-10.38,15-12.29,19.31,0,0-6.05-9.2-13.92-20-5.26-7.23-9.47-15.08-9.87-21.83-.44-7.72,2.72-14.63,11.49-15.83Z" transform="translate(-259.93 -369.78)"/>
            <path id="path8580" class="cls-2" d="M360,654.54c7.15.48,10.87-5.62,11.6-10.43.43-.77.67-.55.83,0,.35,6.17,5.88,11.22,11,10.53,8.32-.11,13.39-9.38,12-17.22-1.74-9.58-6.9-15.35-10.8-21.29-4.43-6.16-10.38-15-12.29-19.32,0,0-6.05,9.2-13.92,20-5.26,7.24-9.47,15.08-9.87,21.83-.44,7.72,2.72,14.64,11.49,15.83Z" transform="translate(-259.93 -369.78)"/>
          </g>
        </g>
      </g>
    </g>
  </g>
</svg>
